<?xml version="1.0" encoding="utf-8"?>
<!-- Generator: Adobe Illustrator 17.1.0, SVG Export Plug-In . SVG Version: 6.00 Build 0)  -->
<!DOCTYPE svg PUBLIC "-//W3C//DTD SVG 1.1//EN" "http://www.w3.org/Graphics/SVG/1.1/DTD/svg11.dtd">
<svg version="1.1" id="Layer_1" xmlns="http://www.w3.org/2000/svg" xmlns:xlink="http://www.w3.org/1999/xlink" x="0px" y="0px"
	 viewBox="0 0 72 72" enable-background="new 0 0 72 72" xml:space="preserve">
<g>
	<circle fill="#648281" cx="36" cy="36" r="36"/>
	<g id="facebook_1_">
		<path fill="#FFFFFF" d="M34,20.6c-1.2,0.7-2.1,1.6-2.6,2.7c-0.4,1-0.7,2.5-0.7,4.5v0.7h-3.2V35h3.2v17.4h7.8V35h4.3v-6.5h-4.3
			v-0.6c0-1.3,0.3-1.6,0.3-1.6c0.2-0.2,0.6-0.3,1.1-0.3c0.8,0,1.6,0.1,2.4,0.3l1,0.2l1.1-5.9l-0.8-0.3C40.3,19.3,36.4,19.3,34,20.6z
			"/>
	</g>
</g>
</svg>
