<?xml version="1.0" encoding="utf-8"?>
<!-- Generator: Adobe Illustrator 17.1.0, SVG Export Plug-In . SVG Version: 6.00 Build 0)  -->
<!DOCTYPE svg PUBLIC "-//W3C//DTD SVG 1.1//EN" "http://www.w3.org/Graphics/SVG/1.1/DTD/svg11.dtd">
<svg version="1.1" id="Layer_1" xmlns="http://www.w3.org/2000/svg" xmlns:xlink="http://www.w3.org/1999/xlink" x="0px" y="0px"
	 viewBox="0 0 28 28" enable-background="new 0 0 28 28" xml:space="preserve">
<g>
	<circle fill="#648281" cx="14" cy="14" r="14"/>
	<g>
		<path fill="#FFFFFF" d="M19.5,9.9L19.5,9.9 M16.6,8.6c-1.6,0-3,1.3-3,2.9c-1.6-0.2-3-1.1-4-2.3C9.5,9.1,9.3,9,9.1,9c0,0,0,0-0.1,0
			C8.8,9,8.7,9.2,8.6,9.3C7.4,11.9,8,13.9,8.7,15c0.5,0.8,1.2,1.5,1.9,1.9c-0.5,0.2-1.1,0.3-1.7,0.3c-0.3,0-0.6,0.3-0.6,0.6
			c0,0.6,0.9,1,1.2,1.1c0.5,0.2,1.4,0.5,2.6,0.5c2.8,0,4.6-1.3,5.6-2.5c1.2-1.4,1.9-3.3,1.9-5.1c0-0.1,0-0.2,0-0.2
			c0-0.1,0.1-0.2,0.1-0.3c0.1-0.4,0.2-0.7,0.4-1.2c0-0.1,0-0.1,0-0.2c0-0.3-0.3-0.6-0.6-0.6c0,0,0,0,0,0c0,0,0,0,0,0l-0.2,0
			c-0.2,0-0.3,0-0.4,0c-0.1,0-0.2,0-0.3,0l0,0C18.1,8.8,17.3,8.6,16.6,8.6L16.6,8.6z"/>
	</g>
</g>
</svg>
