<?xml version="1.0" encoding="utf-8"?>
<!-- Generator: Adobe Illustrator 17.1.0, SVG Export Plug-In . SVG Version: 6.00 Build 0)  -->
<!DOCTYPE svg PUBLIC "-//W3C//DTD SVG 1.1//EN" "http://www.w3.org/Graphics/SVG/1.1/DTD/svg11.dtd">
<svg version="1.1" id="Layer_1" xmlns="http://www.w3.org/2000/svg" xmlns:xlink="http://www.w3.org/1999/xlink" x="0px" y="0px"
	 viewBox="0 0 60 60" enable-background="new 0 0 60 60" xml:space="preserve">
<g>
	<path fill="#1D1D1B" d="M35.9,60.6H21.1V45.5h14.8V60.6z M21.4,60.5h14.2V45.7H21.4C21.4,45.7,21.4,60.5,21.4,60.5z"/>
</g>
<g>
	<path fill="#1D1D1B" d="M21.4,49.4l-1.2-0.5l0-0.1c-0.2-0.5-0.4-1-0.7-1.6c-0.9-2-1.9-4.2-2.4-7.4c-2.4-2.8-3.8-6.3-3.8-10
		c0-3.8,1.4-7.4,3.9-10.2c0.6-3,1.5-5.2,2.4-7.1c0.2-0.5,0.5-1.1,0.7-1.6l0-0.1l1.2-0.5v6c2.2-1.1,4.6-1.7,7-1.7
		c2.5,0,5,0.6,7.1,1.8v-6.1l1.2,0.5l0,0.1c0.2,0.5,0.4,1.1,0.7,1.6c0.9,2,1.9,4.2,2.4,7.4c2.4,2.7,3.7,6.3,3.7,9.9
		c0,3.7-1.3,7.2-3.7,10c-0.6,3.1-1.6,5.3-2.4,7.3c-0.3,0.6-0.5,1.1-0.7,1.7l0,0.1l-1.3,0.5v-6.1c-2.2,1.2-4.6,1.7-7.1,1.7
		c-2.5,0-4.9-0.6-7.1-1.8C21.4,43.3,21.4,49.4,21.4,49.4z M35.9,42.9V49l0.7-0.3c0.2-0.5,0.4-1,0.7-1.6c0.9-1.9,1.9-4.2,2.4-7.3v0
		l0,0c2.4-2.7,3.7-6.2,3.7-9.8c0-3.6-1.3-7-3.6-9.7l0,0v0c-0.6-3.2-1.5-5.4-2.4-7.4c-0.2-0.6-0.5-1.1-0.7-1.6l-0.7-0.3V17l-0.2-0.2
		C33.5,15.6,31,15,28.5,15c-2.5,0-4.9,0.6-7.1,1.8l-0.2,0.1v-6.1l-0.7,0.3c-0.2,0.5-0.4,1-0.6,1.5c-0.9,1.9-1.8,4.1-2.4,7.1v0l0,0
		c-2.5,2.8-3.9,6.3-3.9,10.1c0,3.6,1.3,7.1,3.7,9.8l0,0v0c0.6,3.1,1.5,5.4,2.4,7.3c0.2,0.5,0.4,1,0.6,1.5l0.7,0.3v-6.1l0.2,0.1
		c2.2,1.2,4.7,1.9,7.2,1.9c2.5,0,5-0.6,7.1-1.8L35.9,42.9z"/>
</g>
<g>
	<path fill="#1D1D1B" d="M36,14.8H21.2V-0.7H36V14.8z M21.5,14.6h14.2V-0.5H21.5C21.5-0.5,21.5,14.6,21.5,14.6z"/>
</g>
<g>
	<circle fill="none" cx="28.5" cy="29.9" r="13.9"/>
</g>
<g>
	<circle fill="#FFFFFF" cx="28.5" cy="29.9" r="13.1"/>
	<path fill="#1D1D1B" d="M28.5,43.3c-7.4,0-13.4-6-13.4-13.4s6-13.4,13.4-13.4S42,22.5,42,29.9S35.9,43.3,28.5,43.3z M28.5,17.1
		c-7.1,0-12.8,5.8-12.8,12.8s5.8,12.8,12.8,12.8S41.4,37,41.4,29.9S35.6,17.1,28.5,17.1z"/>
</g>
<g>
	<path d="M34.2,20.2v-0.7c0-0.1,0-0.1,0-0.2s-0.1,0-0.1,0s0,0-0.1,0s-0.1,0-0.1,0c-0.1,0-0.1,0-0.1-0.1s0-0.1,0.1-0.1
		c0,0,0.1,0,0.1,0c0,0,0.1,0,0.1,0c0.1,0,0.1,0,0.1,0c0.1,0,0.1,0,0.1,0c0,0,0.1,0,0.1,0c0,0,0,0,0,0.1c0,0,0,0,0,0.1
		c0,0.2,0,0.3,0,0.5V20c0,0.1,0,0.1,0,0.2c0,0.1,0,0.2,0,0.2c0,0.1,0,0.2,0.1,0.2c0,0,0.1,0,0.1,0s0.1,0,0.1,0c0.1,0,0.1,0,0.1,0.1
		c0,0.1,0,0.1-0.1,0.1c0,0-0.1,0-0.1,0c-0.1,0-0.2,0-0.3,0s-0.1,0-0.3,0c-0.1,0-0.1,0-0.1,0c-0.1,0-0.1,0-0.1-0.1
		c0-0.1,0-0.1,0.1-0.1c0,0,0.1,0,0.1,0s0.1,0,0.1,0c0.1,0,0.1,0,0.1-0.1C34.2,20.5,34.2,20.4,34.2,20.2z"/>
</g>
<g>
	<g>
		<g>
			<line fill="none" x1="28.5" y1="40.2" x2="28.5" y2="19.7"/>
			<rect x="28.4" y="19.7" fill="#1D1D1B" width="0.3" height="20.6"/>
		</g>
		<g>
			<line fill="none" x1="18.2" y1="29.9" x2="38.8" y2="29.9"/>
			<rect x="18.2" y="29.8" fill="#1D1D1B" width="20.6" height="0.3"/>
		</g>
		<g>
			<line fill="none" x1="19.6" y1="35.1" x2="37.4" y2="24.8"/>
			
				<rect x="28.4" y="19.6" transform="matrix(-0.5003 -0.8658 0.8658 -0.5003 16.8843 69.5527)" fill="#1D1D1B" width="0.3" height="20.6"/>
		</g>
		<g>
			<line fill="none" x1="23.4" y1="38.8" x2="33.7" y2="21"/>
			
				<rect x="28.4" y="19.6" transform="matrix(-0.8661 -0.4999 0.4999 -0.8661 38.2613 70.0713)" fill="#1D1D1B" width="0.3" height="20.6"/>
		</g>
		<g>
			<line fill="none" x1="33.7" y1="38.8" x2="23.4" y2="21"/>
			<rect x="18.2" y="29.8" transform="matrix(-0.5 -0.866 0.866 -0.5 16.8697 69.5518)" fill="#1D1D1B" width="20.6" height="0.3"/>
		</g>
		<g>
			<line fill="none" x1="37.4" y1="35.1" x2="19.6" y2="24.8"/>
			<rect x="18.2" y="29.8" transform="matrix(-0.866 -0.5 0.5 -0.866 38.2533 70.0683)" fill="#1D1D1B" width="20.6" height="0.3"/>
		</g>
	</g>
	<g>
		<g>
			<line fill="none" x1="29.6" y1="40.2" x2="27.5" y2="19.8"/>
			
				<rect x="18.3" y="29.8" transform="matrix(-0.1045 -0.9945 0.9945 -0.1045 1.6974 61.485)" fill="#1D1D1B" width="20.6" height="0.3"/>
		</g>
		<g>
			<line fill="none" x1="18.3" y1="31" x2="38.7" y2="28.8"/>
			
				<rect x="28.3" y="19.6" transform="matrix(-0.1045 -0.9945 0.9945 -0.1045 1.7149 61.3192)" fill="#1D1D1B" width="0.3" height="20.6"/>
		</g>
		<g>
			<line fill="none" x1="20.2" y1="35.9" x2="36.8" y2="23.9"/>
			
				<rect x="28.4" y="19.6" transform="matrix(-0.5881 -0.8088 0.8088 -0.5881 21.0772 70.5634)" fill="#1D1D1B" width="0.3" height="20.6"/>
		</g>
		<g>
			<line fill="none" x1="24.3" y1="39.3" x2="32.7" y2="20.5"/>
			
				<rect x="28.4" y="19.6" transform="matrix(-0.9137 -0.4065 0.4065 -0.9137 42.4066 68.8392)" fill="#1D1D1B" width="0.3" height="20.6"/>
		</g>
		<g>
			<line fill="none" x1="34.5" y1="38.2" x2="22.5" y2="21.6"/>
			
				<rect x="18.2" y="29.8" transform="matrix(-0.5878 -0.809 0.809 -0.5878 21.0627 70.5587)" fill="#1D1D1B" width="20.6" height="0.3"/>
		</g>
		<g>
			<line fill="none" x1="37.9" y1="34.1" x2="19.1" y2="25.7"/>
			
				<rect x="18.2" y="29.8" transform="matrix(-0.9136 -0.4067 0.4067 -0.9136 42.3987 68.8348)" fill="#1D1D1B" width="20.6" height="0.3"/>
		</g>
	</g>
	<g>
		<g>
			<line fill="none" x1="30.6" y1="40" x2="26.4" y2="19.9"/>
			
				<rect x="18.2" y="29.8" transform="matrix(-0.2079 -0.9781 0.9781 -0.2079 5.1384 64.1082)" fill="#1D1D1B" width="20.6" height="0.3"/>
		</g>
		<g>
			<line fill="none" x1="18.4" y1="32" x2="38.5" y2="27.8"/>
			
				<rect x="28.3" y="19.6" transform="matrix(-0.2079 -0.9781 0.9781 -0.2079 5.1309 63.9485)" fill="#1D1D1B" width="0.3" height="20.6"/>
		</g>
		<g>
			<line fill="none" x1="20.9" y1="36.8" x2="36.1" y2="23"/>
			
				<rect x="28.3" y="19.6" transform="matrix(-0.6695 -0.7428 0.7428 -0.6695 25.3435 71.0694)" fill="#1D1D1B" width="0.3" height="20.6"/>
		</g>
		<g>
			<line fill="none" x1="25.3" y1="39.7" x2="31.7" y2="20.1"/>
			
				<rect x="28.3" y="19.6" transform="matrix(-0.9512 -0.3086 0.3086 -0.9512 46.3521 67.1454)" fill="#1D1D1B" width="0.3" height="20.6"/>
		</g>
		<g>
			<line fill="none" x1="35.4" y1="37.5" x2="21.6" y2="22.3"/>
			
				<rect x="18.2" y="29.8" transform="matrix(-0.6691 -0.7432 0.7432 -0.6691 25.3841 71.1008)" fill="#1D1D1B" width="20.6" height="0.3"/>
		</g>
		<g>
			<line fill="none" x1="38.3" y1="33.1" x2="18.7" y2="26.7"/>
			
				<rect x="18.2" y="29.7" transform="matrix(-0.9511 -0.309 0.309 -0.9511 46.4174 67.1298)" fill="#1D1D1B" width="20.6" height="0.3"/>
		</g>
	</g>
	<g>
		<g>
			<line fill="none" x1="31.7" y1="39.7" x2="25.4" y2="20.2"/>
			
				<rect x="18.2" y="29.8" transform="matrix(-0.309 -0.9511 0.9511 -0.309 8.8241 66.3532)" fill="#1D1D1B" width="20.6" height="0.3"/>
		</g>
		<g>
			<line fill="none" x1="18.7" y1="33.1" x2="38.2" y2="26.7"/>
			
				<rect x="28.3" y="19.6" transform="matrix(-0.3086 -0.9512 0.9512 -0.3086 8.7833 66.1991)" fill="#1D1D1B" width="0.3" height="20.6"/>
		</g>
		<g>
			<line fill="none" x1="21.6" y1="37.5" x2="35.4" y2="22.3"/>
			
				<rect x="28.3" y="19.6" transform="matrix(-0.7428 -0.6696 0.6696 -0.7428 29.6042 71.1864)" fill="#1D1D1B" width="0.3" height="20.6"/>
		</g>
		<g>
			<line fill="none" x1="26.4" y1="40" x2="30.6" y2="19.8"/>
			
				<rect x="28.3" y="19.6" transform="matrix(-0.9783 -0.207 0.207 -0.9783 50.1624 65.0663)" fill="#1D1D1B" width="0.3" height="20.6"/>
		</g>
		<g>
			<line fill="none" x1="36.1" y1="36.8" x2="20.9" y2="23"/>
			
				<rect x="18.2" y="29.7" transform="matrix(-0.7431 -0.6691 0.6691 -0.7431 29.6822 71.1536)" fill="#1D1D1B" width="20.6" height="0.3"/>
		</g>
		<g>
			<line fill="none" x1="38.5" y1="32" x2="18.4" y2="27.8"/>
			
				<rect x="18.2" y="29.7" transform="matrix(-0.9781 -0.2079 0.2079 -0.9781 50.1496 65.0295)" fill="#1D1D1B" width="20.6" height="0.3"/>
		</g>
	</g>
	<g>
		<g>
			<line fill="none" x1="32.7" y1="39.4" x2="24.4" y2="20.6"/>
			
				<rect x="18.2" y="29.8" transform="matrix(-0.4067 -0.9136 0.9136 -0.4067 12.7533 68.2009)" fill="#1D1D1B" width="20.6" height="0.3"/>
		</g>
		<g>
			<line fill="none" x1="19.1" y1="34.1" x2="37.9" y2="25.7"/>
			
				<rect x="28.3" y="19.6" transform="matrix(-0.4065 -0.9136 0.9136 -0.4065 12.7005 68.0633)" fill="#1D1D1B" width="0.3" height="20.6"/>
		</g>
		<g>
			<line fill="none" x1="22.5" y1="38.2" x2="34.5" y2="21.6"/>
			
				<rect x="28.3" y="19.6" transform="matrix(-0.8088 -0.5881 0.5881 -0.8088 33.9221 70.8402)" fill="#1D1D1B" width="0.3" height="20.6"/>
		</g>
		<g>
			<line fill="none" x1="27.4" y1="40.1" x2="29.6" y2="19.7"/>
			
				<rect x="28.3" y="19.6" transform="matrix(-0.9944 -0.1055 0.1055 -0.9944 53.6611 62.659)" fill="#1D1D1B" width="0.3" height="20.6"/>
		</g>
		<g>
			<line fill="none" x1="36.8" y1="35.9" x2="20.2" y2="23.9"/>
			
				<rect x="18.2" y="29.7" transform="matrix(-0.809 -0.5878 0.5878 -0.809 33.985 70.8056)" fill="#1D1D1B" width="20.6" height="0.3"/>
		</g>
		<g>
			<line fill="none" x1="38.7" y1="31" x2="18.3" y2="28.8"/>
			
				<rect x="18.2" y="29.7" transform="matrix(-0.9945 -0.1045 0.1045 -0.9945 53.7063 62.5743)" fill="#1D1D1B" width="20.6" height="0.3"/>
		</g>
	</g>
	<g>
		<circle fill="#FFFFFF" cx="28.5" cy="29.9" r="9.6"/>
		<path fill="#1D1D1B" d="M28.5,39.7c-5.4,0-9.7-4.4-9.7-9.7s4.4-9.7,9.7-9.7s9.7,4.4,9.7,9.7S33.9,39.7,28.5,39.7z M28.5,20.5
			c-5.2,0-9.5,4.3-9.5,9.5s4.3,9.5,9.5,9.5s9.5-4.3,9.5-9.5S33.7,20.5,28.5,20.5z"/>
	</g>
</g>
<g>
	<path d="M38.1,24.5c0,0-0.1,0.1-0.1,0.1c0.1-0.1,0.1-0.1,0.3-0.1c0.1,0,0.2,0,0.3,0.1c0.1,0.1,0.2,0.1,0.3,0.1c0.1,0,0.1,0,0.1-0.1
		s0-0.1,0-0.1c0,0,0,0,0-0.1c0,0-0.1,0-0.1,0c-0.1,0-0.1,0-0.1-0.1c0,0,0-0.1,0-0.1s0.1,0,0.1,0s0.1,0,0.1,0.1c0,0,0.1,0.1,0.1,0.2
		c0,0.1,0,0.2-0.1,0.3C39,25,38.9,25,38.8,25c-0.1,0-0.2-0.1-0.3-0.1c-0.1-0.1-0.2-0.1-0.3-0.1c-0.1,0-0.1-0.1-0.2,0.2c0,0,0,0,0,0
		c0.1,0,0.1-0.1,0.1,0s0,0.1-0.1,0.1c-0.1,0-0.1,0-0.1-0.1c0-0.1-0.1-0.1-0.1-0.2c0-0.3,0.2-0.5,0.6-0.6l0.2-0.1
		c0.2-0.1,0.3-0.2,0.3-0.3c0-0.1,0-0.2-0.1-0.2c-0.1-0.1-0.2-0.1-0.3-0.1c-0.1,0-0.2,0-0.3,0.1s-0.1,0.1-0.1,0.2
		c0.1,0,0.1,0,0.1,0.1c0,0,0,0.1-0.1,0.1s-0.1,0-0.1,0s-0.1,0-0.1-0.1c0,0-0.1-0.1-0.1-0.1c0-0.1,0.1-0.2,0.2-0.3
		c0.1-0.1,0.3-0.1,0.4-0.1c0.2,0,0.3,0.1,0.4,0.1c0.1,0.1,0.1,0.2,0.1,0.4c0,0.1,0,0.2-0.1,0.3c-0.1,0.1-0.1,0.1-0.2,0.2
		c0,0-0.1,0.1-0.3,0.1c-0.1,0-0.2,0.1-0.3,0.1C38.1,24.4,38.1,24.5,38.1,24.5z"/>
</g>
<g>
	<line fill="none" x1="28.5" y1="38.4" x2="28.5" y2="31.6"/>
	<rect x="28.4" y="31.6" fill="#1D1D1B" width="0.3" height="6.8"/>
</g>
<g>
	<line fill="none" x1="25.2" y1="35" x2="31.9" y2="35"/>
	<rect x="25.2" y="34.8" fill="#1D1D1B" width="6.8" height="0.3"/>
</g>
<g>
	<line fill="none" x1="25.6" y1="36.7" x2="31.5" y2="33.3"/>
	
		<rect x="28.4" y="31.6" transform="matrix(-0.5003 -0.8658 0.8658 -0.5003 12.542 77.2097)" fill="#1D1D1B" width="0.3" height="6.8"/>
</g>
<g>
	<line fill="none" x1="26.8" y1="37.9" x2="30.2" y2="32.1"/>
	
		<rect x="28.4" y="31.6" transform="matrix(-0.8661 -0.4999 0.4999 -0.8661 35.7931 79.5548)" fill="#1D1D1B" width="0.3" height="6.8"/>
</g>
<g>
	<line fill="none" x1="30.2" y1="37.9" x2="26.8" y2="32.1"/>
	<rect x="25.1" y="34.8" transform="matrix(-0.5 -0.866 0.866 -0.5 12.5001 77.1808)" fill="#1D1D1B" width="6.8" height="0.3"/>
</g>
<g>
	<line fill="none" x1="31.5" y1="36.7" x2="25.6" y2="33.3"/>
	<rect x="25.1" y="34.8" transform="matrix(-0.866 -0.5 0.5 -0.866 35.7463 79.5519)" fill="#1D1D1B" width="6.8" height="0.3"/>
</g>
<g>
	<path d="M39.9,29.7l0.5-0.6h-0.6c-0.1,0-0.1,0.1-0.1,0.1c0,0-0.1,0.1-0.1,0.1c0,0,0,0.1,0,0.1c0,0,0,0.1,0,0.1c0,0.1,0,0.1-0.1,0.1
		s-0.1,0-0.1-0.1c0,0-0.1-0.1-0.1-0.1s-0.1-0.1-0.1-0.1c0-0.1,0-0.1,0-0.1c0,0,0-0.1,0-0.1s0.1-0.1,0.1-0.1c0,0,0.1,0,0.2,0h0.6
		c0,0,0.1,0,0.1,0c0,0,0.1,0,0.1,0c0.1,0,0.1,0,0.1,0.1c0,0,0,0.1-0.1,0.1l-0.4,0.4h0h0c0.1,0,0.2,0,0.3,0.1
		c0.1,0.1,0.1,0.2,0.1,0.3c0,0.2-0.1,0.3-0.2,0.4c-0.1,0.1-0.3,0.1-0.5,0.1s-0.3,0-0.4-0.1c-0.1-0.1-0.2-0.2-0.2-0.3
		c0-0.1,0-0.1,0.1-0.2c0-0.1,0.1-0.1,0.1-0.1c0,0,0.1,0,0.1,0c0,0,0,0.1,0,0.1c0,0.1-0.1,0.1-0.1,0.1h0v0c0,0.1,0,0.1,0.1,0.2
		c0.1,0.1,0.2,0.1,0.3,0.1s0.2,0,0.3-0.1c0.1-0.1,0.1-0.2,0.1-0.3c0-0.2-0.1-0.3-0.4-0.3c-0.1,0-0.1,0-0.2,0h0
		C39.8,29.9,39.8,29.8,39.9,29.7C39.8,29.8,39.9,29.7,39.9,29.7z"/>
</g>
<g>
	<path d="M38.8,35v0.9h0.3c0.1,0,0.1-0.1,0.1,0s0,0-0.1,0h-0.3v0.2c0,0.1,0.1,0.2,0.1,0.2c0,0,0.1,0,0.1,0s0.1,0,0.1,0.1
		s0,0.1-0.1,0.1c0,0-0.1,0-0.1,0s-0.1,0-0.2,0c-0.1,0-0.1,0-0.2,0s-0.1,0-0.2,0s-0.1,0-0.1-0.1s0-0.1,0.1-0.1c0,0,0,0,0.1,0
		s0.1,0,0.1,0c0.1,0,0.2-0.1,0.2-0.2v-0.2h-0.9c-0.1,0-0.1,0-0.1-0.1c0,0,0,0,0-0.1l0.6-0.8c0.1-0.1,0.1-0.1,0.1-0.1c0,0,0,0,0.1,0
		C38.7,34.8,38.8,34.9,38.8,35z M38,35.9h0.6l0-0.8L38,35.9z"/>
</g>
<g>
	<path d="M33.9,39.3l0,0.4c0.1-0.1,0.3-0.1,0.4-0.1c0.2,0,0.3,0.1,0.4,0.1c0.1,0.1,0.1,0.2,0.1,0.4c0,0.2-0.1,0.3-0.2,0.4
		s-0.3,0.2-0.5,0.2s-0.3,0-0.4-0.1c-0.1-0.1-0.2-0.2-0.2-0.3c0-0.1,0-0.1,0.1-0.1c0,0,0.1-0.1,0.1-0.1c0,0,0.1,0,0.1,0
		c0,0,0,0.1,0,0.1c0,0,0,0.1,0,0.1c0,0,0,0-0.1,0s0,0,0,0c0,0.1,0,0.1,0.1,0.1c0.1,0,0.2,0.1,0.3,0.1c0.1,0,0.2,0,0.3-0.1
		c0.1-0.1,0.1-0.2,0.1-0.3s0-0.2-0.1-0.3c-0.1-0.1-0.2-0.1-0.3-0.1c-0.1,0-0.3,0-0.4,0.1c0,0-0.1,0.1-0.1,0.1c0,0,0,0.1-0.1,0.1l0,0
		c-0.1,0-0.1-0.1-0.1-0.1v0l0-0.5c0,0,0-0.1,0-0.1c0-0.1,0-0.1,0-0.1c0,0,0,0,0.1,0c0,0,0,0,0,0H34h0.1h0.3c0.1,0,0.1-0.1,0.1-0.1
		c0.1,0,0.1,0,0.1,0c0.1,0,0.1,0,0.1,0.1l0,0c0,0,0,0.1,0,0.1c0,0,0,0,0,0.1c0,0.1,0,0.1-0.1,0.1s-0.1-0.1-0.1-0.1
		c0-0.1,0-0.2-0.1-0.2H34C34,39.2,33.9,39.2,33.9,39.3z"/>
</g>
<g>
	<path d="M28.6,40.7c-0.1,0-0.3,0.1-0.4,0.2c-0.1,0.1-0.1,0.3-0.1,0.5c0.1-0.2,0.3-0.3,0.5-0.3c0.2,0,0.3,0.1,0.4,0.1
		c0.1,0.1,0.2,0.2,0.2,0.4c0,0.2-0.1,0.3-0.2,0.4c-0.1,0.1-0.3,0.2-0.4,0.2c-0.2,0-0.4-0.1-0.5-0.2c-0.1-0.1-0.2-0.3-0.2-0.6
		c0-0.3,0.1-0.5,0.2-0.7c0.1-0.2,0.3-0.3,0.5-0.3c0.1,0,0.2,0,0.4,0.1c0.1,0.1,0.1,0.1,0.1,0.2c0,0.1,0,0.1-0.1,0.1
		c0,0-0.1,0.1-0.1,0.1c0,0-0.1,0-0.1,0c0,0,0-0.1,0-0.1c0-0.1,0-0.1,0.1-0.1C28.8,40.8,28.7,40.7,28.6,40.7z M28.5,41.3
		c-0.1,0-0.2,0-0.3,0.1c-0.1,0.1-0.1,0.2-0.1,0.3s0,0.2,0.1,0.3c0.1,0.1,0.2,0.1,0.3,0.1c0.1,0,0.2,0,0.3-0.1
		c0.1-0.1,0.1-0.2,0.1-0.3s0-0.2-0.1-0.3C28.8,41.3,28.7,41.3,28.5,41.3z"/>
</g>
<g>
	<path d="M22.3,39.2L22.3,39.2C22.3,39.2,22.3,39.1,22.3,39.2c0.1-0.1,0.2-0.1,0.2-0.1c0.1,0,0.2,0,0.3,0.1c0.1,0.1,0.2,0.1,0.3,0.1
		c0.1,0,0.1-0.1,0.1-0.1h0c0,0,0,0-0.1,0c0,0,0,0,0,0c0,0,0-0.1,0-0.1c0,0,0.1,0,0.1,0c0.1,0,0.1,0.1,0.1,0.2c0,0.1,0,0.2-0.1,0.3
		c0,0.1-0.1,0.1-0.1,0.1c0,0-0.1,0.1-0.1,0.1c-0.1,0.1-0.2,0.2-0.2,0.3c-0.1,0.1-0.1,0.3-0.1,0.4c0,0,0,0,0,0.1c0,0.1,0,0.1,0,0.1
		c0,0.1,0,0.1-0.1,0.1s-0.1-0.1-0.1-0.2c0-0.2,0-0.4,0.1-0.5c0.1-0.1,0.2-0.3,0.4-0.4c0.1-0.1,0.1-0.1,0.1-0.2
		c-0.1,0.1-0.1,0.1-0.2,0.1s-0.2,0-0.3-0.1l-0.1-0.1C22.4,39.2,22.4,39.2,22.3,39.2c0,0-0.1,0.1-0.1,0.2c0,0,0,0.1,0,0.1
		c0,0.1,0,0.1,0,0.1s0,0.1,0,0.1c0,0,0,0-0.1,0c-0.1,0-0.1,0-0.1-0.1c0,0,0-0.1,0-0.1s0-0.1,0-0.1c0-0.1,0-0.1,0-0.1s0-0.1,0-0.1
		c0-0.1,0-0.1,0.1-0.1S22.2,39,22.3,39.2C22.3,39.1,22.3,39.2,22.3,39.2z"/>
</g>
<g>
	<path d="M18.1,35.7c0,0,0.1-0.1,0.2-0.1c-0.1-0.1-0.1-0.1-0.2-0.1c0-0.1-0.1-0.1-0.1-0.2c0-0.1,0.1-0.2,0.1-0.3
		c0.1-0.1,0.2-0.1,0.4-0.1c0.1,0,0.3,0,0.4,0.1c0.1,0.1,0.1,0.2,0.1,0.3c0,0.1,0,0.1-0.1,0.2c0,0.1-0.1,0.1-0.2,0.1
		c0.1,0,0.1,0.1,0.2,0.1c0.1,0.1,0.2,0.2,0.2,0.4c0,0.1-0.1,0.3-0.2,0.4c-0.1,0.1-0.3,0.1-0.4,0.1c-0.2,0-0.4-0.1-0.5-0.1
		c-0.1-0.1-0.2-0.2-0.2-0.4C17.9,35.9,17.9,35.8,18.1,35.7z M18.5,35.7c-0.1,0-0.2,0-0.3,0.1c-0.1,0.1-0.1,0.1-0.1,0.3
		c0,0.1,0,0.2,0.1,0.3c0.1,0.1,0.2,0.1,0.3,0.1s0.2,0,0.3-0.1c0.1-0.1,0.1-0.1,0.1-0.3c0-0.1,0-0.2-0.1-0.2
		C18.8,35.7,18.7,35.7,18.5,35.7z M18.5,35c-0.1,0-0.2,0-0.2,0.1c-0.1,0.1-0.1,0.1-0.1,0.2c0,0.1,0,0.1,0.1,0.2
		c0.1,0,0.1,0.1,0.2,0.1s0.2,0,0.2-0.1s0.1-0.1,0.1-0.2c0-0.1,0-0.1-0.1-0.2S18.6,35,18.5,35z"/>
</g>
<g>
	<path d="M16.9,30.7c0.1,0,0.3-0.1,0.4-0.2c0.1-0.1,0.1-0.3,0.1-0.5c-0.1,0.2-0.2,0.2-0.5,0.2c-0.2,0-0.3-0.1-0.4-0.1
		c-0.1-0.1-0.1-0.2-0.1-0.4c0-0.2,0.1-0.3,0.2-0.4c0.1-0.1,0.3-0.2,0.4-0.2c0.2,0,0.4,0.1,0.5,0.2c0.1,0.1,0.2,0.3,0.2,0.6
		c0,0.3-0.1,0.5-0.2,0.7c-0.1,0.2-0.3,0.2-0.5,0.2c-0.1,0-0.3,0-0.4-0.1c-0.1-0.1-0.1-0.1-0.1-0.2c0-0.1,0-0.1,0.1-0.1
		c0,0,0.1-0.1,0.1-0.1c0,0,0.1,0,0.1,0s0,0.1,0,0.1c0,0.1,0,0.1-0.1,0.1C16.7,30.6,16.8,30.7,16.9,30.7z M17,29.3
		c-0.1,0-0.2,0-0.3,0.1c-0.1,0.1-0.1,0.2-0.1,0.3c0,0.1,0,0.2,0.1,0.3c0.1,0.1,0.2,0.1,0.3,0.1c0.1,0,0.2,0,0.3-0.1s0.1-0.1,0.1-0.3
		c0-0.1,0-0.2-0.1-0.3C17.2,29.4,17.1,29.3,17,29.3z"/>
</g>
<g>
	<path d="M17.9,24.4v-0.7c0-0.1,0-0.1,0-0.2s-0.1,0-0.1,0s0,0-0.1,0c0,0-0.1,0-0.1,0c-0.1,0-0.1,0-0.1-0.1c0-0.1,0-0.1,0.1-0.1
		c0,0,0.1,0,0.1,0s0.1,0,0.1,0c0.1,0,0.1,0,0.1,0c0.1,0,0.1,0,0.1,0c0,0,0.1,0,0.1,0c0,0,0,0,0,0.1c0,0,0,0,0,0.1c0,0.2,0,0.3,0,0.5
		v0.3c0,0.1,0,0.1,0,0.2c0,0.1,0,0.2,0,0.2c0,0.1,0,0.2,0.1,0.2c0,0,0.1,0,0.1,0c0,0,0.1,0,0.1,0c0.1,0,0.1,0,0.1,0.1
		c0,0.1,0,0.1-0.1,0.1c0,0-0.1,0-0.1,0c-0.1,0-0.2,0-0.3,0c-0.1,0-0.1,0-0.3,0c-0.1,0-0.1,0-0.1,0c-0.1,0-0.1,0-0.1-0.1
		c0-0.1,0-0.1,0.1-0.1c0,0,0.1,0,0.1,0c0,0,0.1,0,0.1,0c0.1,0,0.1,0,0.1-0.1C17.9,24.7,17.9,24.7,17.9,24.4z"/>
</g>
<g>
	<path d="M19.3,25.1c-0.2,0-0.4-0.1-0.5-0.2c-0.1-0.1-0.2-0.4-0.2-0.6s0.1-0.5,0.2-0.6c0.1-0.1,0.3-0.2,0.5-0.2s0.4,0.1,0.5,0.2
		c0.1,0.1,0.2,0.4,0.2,0.6c0,0.3-0.1,0.5-0.2,0.6C19.7,24.9,19.5,25.1,19.3,25.1z M19.4,23.5c-0.3,0-0.4,0.2-0.4,0.6v0
		c0,0.2,0,0.4,0.1,0.5c0.1,0.1,0.1,0.2,0.3,0.2s0.2-0.1,0.3-0.2s0.1-0.3,0.1-0.5s0-0.4-0.1-0.5C19.6,23.6,19.5,23.5,19.4,23.5z"/>
</g>
<g>
	<path d="M22,20.2v-0.7c0-0.1,0-0.1,0-0.2s-0.1,0-0.1,0s0,0-0.1,0c0,0-0.1,0-0.1,0c-0.1,0-0.1,0-0.1-0.1s0-0.1,0.1-0.1
		c0,0,0.1,0,0.1,0c0,0,0.1,0,0.1,0c0.1,0,0.1,0,0.1,0c0.1,0,0.1,0,0.1,0c0,0,0.1,0,0.1,0c0,0,0,0,0,0.1c0,0,0,0,0,0.1
		c0,0.2,0,0.3,0,0.5V20c0,0.1,0,0.1,0,0.2c0,0.1,0,0.2,0,0.2c0,0.1,0,0.2,0.1,0.2c0,0,0,0,0.1,0c0,0,0.1,0,0.1,0
		c0.1,0,0.1,0,0.1,0.1c0,0.1,0,0.1-0.1,0.1c0,0-0.1,0-0.1,0c-0.1,0-0.2,0-0.3,0s-0.1,0-0.3,0c-0.1,0-0.1,0-0.1,0
		c-0.1,0-0.1,0-0.1-0.1c0-0.1,0-0.1,0.1-0.1c0,0,0.1,0,0.1,0s0.1,0,0.1,0c0.1,0,0.1,0,0.1-0.1C22,20.5,22,20.4,22,20.2z"/>
</g>
<g>
	<path d="M23.3,20.2v-0.7c0-0.1,0-0.1,0-0.2s-0.1,0-0.1,0s0,0-0.1,0s-0.1,0-0.1,0c-0.1,0-0.1,0-0.1-0.1s0-0.1,0.1-0.1
		c0,0,0.1,0,0.1,0c0,0,0.1,0,0.1,0c0.1,0,0.1,0,0.1,0c0.1,0,0.1,0,0.1,0c0,0,0.1,0,0.1,0c0,0,0,0,0,0.1c0,0-0.1,0-0.1,0.1
		c0,0.2-0.1,0.3-0.1,0.5V20c0,0.1,0.1,0.1,0.1,0.2c0,0.1,0,0.2,0,0.2c0,0.1,0.1,0.2,0.1,0.2c0,0,0.1,0,0.1,0s0.1,0,0.1,0
		c0.1,0,0.1,0,0.1,0.1c0,0.1,0,0.1-0.1,0.1c0,0-0.1,0-0.1,0c-0.1,0-0.2,0-0.3,0s-0.1,0-0.3,0c-0.1,0-0.1,0-0.1,0
		c-0.1,0-0.1,0-0.1-0.1c0-0.1,0-0.1,0.1-0.1c0,0,0.1,0,0.1,0s0.1,0,0.1,0c0.1,0,0.1,0,0.1-0.1C23.3,20.5,23.3,20.4,23.3,20.2z"/>
</g>
<g>
	<path d="M27.6,18.6V18c0-0.1,0-0.1,0-0.2s-0.1,0-0.1,0s0,0-0.1,0s-0.1,0-0.1,0c-0.1,0-0.1,0-0.1-0.1c0-0.1,0-0.1,0.1-0.1
		c0,0,0.1,0,0.1,0c0,0,0.1,0,0.1,0c0.1,0,0.1,0,0.1,0c0.1,0,0.1,0,0.1,0c0,0,0.1,0,0.1,0c0,0,0,0,0,0.1c0,0,0,0,0,0.1
		c0,0.2,0,0.3,0,0.5v0.3c0,0.1,0,0.1,0,0.2c0,0.1,0,0.2,0,0.2c0,0.1,0,0.2,0.1,0.2c0,0,0,0,0.1,0c0,0,0.1,0,0.1,0
		c0.1,0,0.1,0,0.1,0.1c0,0.1,0,0.1-0.1,0.1c0,0-0.1,0-0.1,0c-0.1,0-0.2,0-0.3,0c-0.1,0-0.1,0-0.3,0c-0.1,0-0.1,0-0.1,0
		c-0.1,0-0.1,0-0.1-0.1s0-0.1,0.1-0.1c0,0,0.1,0,0.1,0c0,0,0.1,0,0.1,0c0.1,0,0.1,0,0.1-0.1C27.6,18.9,27.6,18.8,27.6,18.6z"/>
</g>
<g>
	<path d="M28.7,18.7c0,0-0.1,0.1-0.1,0.1c0.1-0.1,0.1-0.1,0.3-0.1c0.1,0,0.2,0,0.3,0.1c0.1,0.1,0.2,0.1,0.3,0.1s0.1,0,0.1-0.1
		c0,0,0-0.1,0-0.1c0,0,0,0,0-0.1c0,0-0.1,0-0.1,0c-0.1,0-0.1,0-0.1-0.1c0,0,0-0.1,0-0.1c0,0,0.1,0,0.1,0c0.1,0,0.1,0,0.1,0.1
		c0,0,0.1,0.1,0.1,0.2s0,0.2-0.1,0.3c-0.1,0.1-0.2,0.1-0.3,0.1c-0.1,0-0.2-0.1-0.3-0.1C29.1,19,28.9,19,28.8,19s-0.1,0.1-0.2,0.1
		c0,0,0,0,0,0c0.1,0,0.1,0,0.1,0.1c0,0.1,0,0.1-0.1,0.1c-0.1,0-0.1,0-0.1-0.1c0-0.1-0.1-0.1-0.1-0.2c0-0.3,0.2-0.5,0.6-0.6l0.2-0.1
		c0.2-0.1,0.3-0.2,0.3-0.3c0-0.1,0-0.2-0.1-0.2c-0.1-0.1-0.2-0.1-0.3-0.1c-0.1,0-0.2,0-0.3,0.1c-0.1,0-0.1,0.1-0.1,0.2
		c0.1,0,0.1,0,0.1,0.1c0,0,0,0.1-0.1,0.1c0,0-0.1,0.1-0.1,0.1c-0.1,0-0.1,0-0.1-0.1c0,0-0.1-0.1-0.1-0.1c0-0.1,0.1-0.2,0.2-0.3
		c0.1-0.1,0.3-0.1,0.4-0.1c0.2,0,0.3,0.1,0.4,0.1c0.1,0.1,0.1,0.2,0.1,0.4c0,0.1,0,0.2-0.1,0.3c-0.1,0.1-0.1,0.1-0.2,0.2
		c0,0-0.1,0.1-0.3,0.1C29,18.6,28.9,18.7,28.7,18.7C28.8,18.7,28.8,18.7,28.7,18.7z"/>
</g>
<g>
	<path fill="#1D1D1B" d="M28.5,38.5c-1.9,0-3.5-1.6-3.5-3.5s1.6-3.5,3.5-3.5c1.9,0,3.5,1.6,3.5,3.5S30.4,38.5,28.5,38.5z M28.5,31.8
		c-1.8,0-3.2,1.4-3.2,3.2s1.4,3.2,3.2,3.2c1.8,0,3.2-1.4,3.2-3.2C31.7,33.2,30.3,31.8,28.5,31.8z"/>
</g>
<g>
	<path fill="#22201B" d="M28.5,30.9c-0.5,0-0.9-0.4-0.9-0.9c0-0.5,0.4-0.9,0.9-0.9c0.5,0,0.9,0.4,0.9,0.9
		C29.5,30.4,29.1,30.9,28.5,30.9z M28.5,29.2c-0.4,0-0.6,0.3-0.6,0.6c0,0.4,0.3,0.6,0.6,0.6c0.4,0,0.6-0.3,0.6-0.6
		C29.2,29.5,28.9,29.2,28.5,29.2z"/>
</g>
<g>
	<path fill="#22201B" d="M25.4,23.7c-0.2-0.2-0.5-0.3-0.9-0.2l-1.4-2l-0.4,0.3l1.3,2c-0.2,0.3-0.3,0.6-0.1,0.9
		c0.1,0.2,0.6,0.4,1,0.5l3.2,5l0.6-0.4l-3.4-4.9C25.5,24.5,25.5,23.9,25.4,23.7z"/>
</g>
<g>
	<circle fill="#22201B" cx="28.5" cy="29.9" r="0.6"/>
</g>
<g>
	
		<rect x="34.5" y="32.6" transform="matrix(-0.9144 -0.4048 0.4048 -0.9144 54.1813 77.242)" fill="#22201B" width="1.4" height="0.6"/>
</g>
<g>
	
		<rect x="28.3" y="30.4" transform="matrix(-0.9144 -0.4047 0.4047 -0.9144 45.6215 71.0653)" fill="#22201B" width="4" height="0.6"/>
</g>
<g>
	<path fill="#22201B" d="M33.4,33.7c-0.5,0-0.9-0.2-1.2-0.6c-0.5-0.7-0.4-1.6,0.3-2.1c0.3-0.2,0.6-0.3,0.9-0.3
		c0.5,0,0.9,0.2,1.2,0.6c0.5,0.7,0.4,1.6-0.3,2.1C34,33.6,33.7,33.7,33.4,33.7z M33.4,31.2c-0.2,0-0.4,0.1-0.6,0.2
		c-0.4,0.3-0.5,0.9-0.2,1.3c0.3,0.4,0.9,0.5,1.3,0.2c0.4-0.3,0.5-0.9,0.2-1.3C34,31.4,33.7,31.2,33.4,31.2z"/>
</g>
<g>
	<circle fill="#FFFFFF" cx="28.5" cy="35" r="2.3"/>
	<path fill="#1D1D1B" d="M28.5,37.5c-1.4,0-2.5-1.1-2.5-2.5c0-1.4,1.1-2.5,2.5-2.5c1.4,0,2.5,1.1,2.5,2.5
		C31,36.4,29.9,37.5,28.5,37.5z M28.5,32.8c-1.2,0-2.2,1-2.2,2.2c0,1.2,1,2.2,2.2,2.2s2.2-1,2.2-2.2C30.7,33.8,29.7,32.8,28.5,32.8z
		"/>
</g>
<g>
	<circle cx="28.5" cy="35" r="0.4"/>
</g>
<g>
	<line fill="none" x1="28.5" y1="35" x2="30.3" y2="33.1"/>
	<rect x="29.3" y="32.7" transform="matrix(-0.7391 -0.6736 0.6736 -0.7391 28.2196 79.0046)" width="0.3" height="2.6"/>
</g>
<g>
	<path d="M43.7,31.6L43.7,31.6c-0.2,0-0.4-0.2-0.4-0.4v-2.6c0-0.2,0.2-0.4,0.4-0.4l0,0c0.2,0,0.4,0.2,0.4,0.4v2.6
		C44.1,31.4,43.9,31.6,43.7,31.6z"/>
</g>
<g>
	<path d="M46.2,32.1h-1.6c0.2,0.3,0.5,0.3,0.8,0.3C45.6,32.4,45.9,32.4,46.2,32.1z"/>
</g>
<g>
	<path d="M44.2,31.5c0,0.3,0.1,0.3,0.1,0.3h2.1c0.1,0,0.1,0,0.1-0.3H44.2z"/>
</g>
<g>
	<rect x="44" y="30.3" width="2.7" height="0.3"/>
</g>
<g>
	<path d="M44,28.6v0.3h2.7v-0.3c0,0-0.1,0-0.1,0L44,28.6C44.1,28.6,44,28.5,44,28.6z"/>
</g>
<g>
	<path d="M44,30.9v0.3c0,0,0.1,0,0.1,0h2.5c0,0,0.1,0,0.1,0v-0.3H44z"/>
</g>
<g>
	<path d="M44.3,28c-0.1,0-0.1,0-0.1,0.3h2.4c0-0.3-0.1-0.3-0.1-0.3H44.3z"/>
</g>
<g>
	<rect x="44" y="29.7" width="2.7" height="0.3"/>
</g>
<g>
	<path d="M46.2,27.7c-0.2-0.3-0.5-0.3-0.8-0.3c-0.3,0-0.6,0-0.8,0.3H46.2z"/>
</g>
<g>
	<rect x="44" y="29.1" width="2.7" height="0.3"/>
</g>
</svg>
